<mxfile host="app.diagrams.net" modified="2023-11-22T05:00:32.196Z" agent="Mozilla/5.0 (Windows NT 10.0; Win64; x64) AppleWebKit/537.36 (KHTML, like Gecko) Chrome/119.0.0.0 Safari/537.36" version="22.1.3" etag="-3QXh4uE3Aiur7039s23" type="github">
  <diagram name="Page-1" id="9yHxmWQUhlJ3pcLIQc79">
    <mxGraphModel>
      <root>
        <mxCell id="0" />
        <mxCell id="1" parent="0" />
      </root>
    </mxGraphModel>
  </diagram>
</mxfile>
